<?xml version="1.0" encoding="UTF-8"?>
<!-- Ai ???ZK????????????? ZK ???? + AI ??? -->
<svg xmlns="http://www.w3.org/2000/svg" viewBox="0 0 64 64" role="img" aria-label="Ai??ZK">
  <defs>
    <linearGradient id="zkFace" x1="10" y1="12" x2="54" y2="52" gradientUnits="userSpaceOnUse">
      <stop offset="0%" stop-color="#38bdf8"/>
      <stop offset="45%" stop-color="#6366f1"/>
      <stop offset="100%" stop-color="#a78bfa"/>
    </linearGradient>
    <linearGradient id="zkTopHi" gradientUnits="userSpaceOnUse" x1="11" y1="16" x2="11" y2="19">
      <stop offset="0%" stop-color="#f0f9ff"/>
      <stop offset="100%" stop-color="#38bdf8" stop-opacity="0"/>
    </linearGradient>
    <filter id="zkSoft" x="-25%" y="-25%" width="150%" height="150%">
      <feGaussianBlur in="SourceAlpha" stdDeviation="0.7" result="b"/>
      <feOffset dx="0" dy="0.45" in="b" result="o"/>
      <feMerge>
        <feMergeNode in="o"/>
        <feMergeNode in="SourceGraphic"/>
      </feMerge>
    </filter>
  </defs>

  <rect x="5" y="5" width="54" height="54" rx="14" fill="rgba(15,23,42,0.32)" stroke="url(#zkFace)" stroke-width="2"/>

  <!--???? -->
  <g opacity="0.9" transform="translate(2.05,2.2)">
    <path
      fill="#1e1b4b"
      d="M11.5 16.2L27.3 16.2L27.3 19.3L14 29.4L27.3 29.4L27.3 32.5L11.5 32.5L11.5 29.4L24.2 19.3L11.5 19.3z
         M30.2 16.2H33.8V24.5L47.5 16.2H50.8L38.5 25.2L50.5 32.5H46.8L33.8 26.5V32.5H30.2V16.2z"
    />
  </g>

  <!-- ZK ?? -->
  <g filter="url(#zkSoft)">
    <path
      fill="url(#zkFace)"
      stroke="rgba(255,255,255,0.22)"
      stroke-width="0.35"
      d="M11.5 16.2L27.3 16.2L27.3 19.3L14 29.4L27.3 29.4L27.3 32.5L11.5 32.5L11.5 29.4L24.2 19.3L11.5 19.3z
         M30.2 16.2H33.8V24.5L47.5 16.2H50.8L38.5 25.2L50.5 32.5H46.8L33.8 26.5V32.5H30.2V16.2z"
    />
  </g>

  <path fill="url(#zkTopHi)" opacity="0.55" d="M12 16.2H26.8V17.35H12z M30.4 16.2H33.6V17.35H30.4z"/>

  <!-- AI ????? + ?? -->
  <g stroke-linecap="round">
    <path d="M27.6 22C30 20.6 34 20.6 36.4 22" fill="none" stroke="#67e8f9" stroke-width="1.05" opacity="0.9"/>
    <path d="M32.4 25.2C33.8 27.8 37 29.5 40.2 30.5" fill="none" stroke="#c4b5fd" stroke-width="0.95" opacity="0.82"/>
    <circle cx="27.5" cy="22.1" r="2" fill="#e0f2fe" stroke="#38bdf8" stroke-width="0.85"/>
    <circle cx="36.5" cy="22.1" r="2" fill="#e0e7ff" stroke="#818cf8" stroke-width="0.85"/>
    <circle cx="32" cy="26.6" r="2.2" fill="#fae8ff" stroke="#c084fc" stroke-width="0.85"/>
    <circle cx="23.6" cy="30.4" r="1.5" fill="#cffafe" stroke="#22d3ee" stroke-width="0.7"/>
    <circle cx="40.4" cy="31" r="1.5" fill="#ede9fe" stroke="#a78bfa" stroke-width="0.7"/>
  </g>

  <path d="M13 50.5h5.5m7 0h5.5m7 0h5.5m7 0h5.5" stroke="#64748b" stroke-width="1.35" stroke-linecap="round" opacity="0.65"/>
</svg>
