<?xml version="1.0" encoding="UTF-8"?>
<!-- Ai ???ZK???????????? ZK + AI ?? + ???? -->
<svg xmlns="http://www.w3.org/2000/svg" viewBox="0 0 72 72" role="img" aria-label="Ai ?? ZK">
  <defs>
    <linearGradient id="f" x1="8" y1="10" x2="62" y2="64" gradientUnits="userSpaceOnUse">
      <stop offset="0%" stop-color="#0284c7"/>
      <stop offset="42%" stop-color="#4f46e5"/>
      <stop offset="100%" stop-color="#9333ea"/>
    </linearGradient>
    <linearGradient id="r" x1="36" y1="6" x2="36" y2="66" gradientUnits="userSpaceOnUse">
      <stop offset="0%" stop-color="#ffffff" stop-opacity="0.55"/>
      <stop offset="100%" stop-color="#6366f1" stop-opacity="0.45"/>
    </linearGradient>
    <radialGradient id="c" cx="36" cy="34" r="22" gradientUnits="userSpaceOnUse">
      <stop offset="0%" stop-color="#38bdf8" stop-opacity="0.4"/>
      <stop offset="100%" stop-color="transparent"/>
    </radialGradient>
    <filter id="s" x="-30%" y="-30%" width="160%" height="160%">
      <feDropShadow dx="0" dy="1.8" stdDeviation="1.2" flood-color="#0f172a" flood-opacity="0.35"/>
    </filter>
  </defs>
  <rect x="4" y="4" width="64" height="64" rx="18" fill="rgba(15,23,42,0.2)" stroke="url(#r)" stroke-width="1.35"/>
  <rect x="7" y="7" width="58" height="58" rx="15" fill="url(#c)"/>
  <g fill="none" stroke-linecap="round" opacity="0.9">
    <ellipse cx="36" cy="36" rx="26" ry="12" stroke="#0284c7" stroke-width="0.85" stroke-dasharray="3 4" transform="rotate(-18 36 36)"/>
    <ellipse cx="36" cy="36" rx="26" ry="12" stroke="#4f46e5" stroke-width="0.75" stroke-dasharray="2 5" transform="rotate(38 36 36)"/>
    <path d="M22 48 Q36 56 50 46" stroke="#7c3aed" stroke-width="0.9"/>
    <circle cx="22" cy="26" r="2.1" fill="#f8fafc" stroke="#0284c7" stroke-width="0.6"/>
    <circle cx="50" cy="28" r="2.1" fill="#f8fafc" stroke="#4f46e5" stroke-width="0.6"/>
    <circle cx="36" cy="20" r="2.35" fill="#f8fafc" stroke="#9333ea" stroke-width="0.65"/>
  </g>
  <g opacity="0.88" transform="translate(2.4,2.55)">
    <path fill="#1e1b4b" d="M14.2 24.5L32.6 24.5L32.6 28.2L16.8 40.2L32.6 40.2L32.6 43.8L14.2 43.8L14.2 40.2L28.8 28.2L14.2 28.2z M36.2 24.5H40.4V34.2L56.2 24.5H60.2L46.2 35L59.8 43.8H55.4L40.4 36.2V43.8H36.2V24.5z"/>
  </g>
  <g filter="url(#s)">
    <path fill="url(#f)" stroke="rgba(255,255,255,0.28)" stroke-width="0.4" d="M14.2 24.5L32.6 24.5L32.6 28.2L16.8 40.2L32.6 40.2L32.6 43.8L14.2 43.8L14.2 40.2L28.8 28.2L14.2 28.2z M36.2 24.5H40.4V34.2L56.2 24.5H60.2L46.2 35L59.8 43.8H55.4L40.4 36.2V43.8H36.2V24.5z"/>
  </g>
  <path fill="rgba(255,255,255,0.42)" opacity="0.55" d="M15 24.5H31.5V25.9H15z M36.4 24.5H40.2V25.9H36.4z"/>
  <path d="M52 10L62 10L62 20Q57 22 52 18z" fill="#0ea5e9" stroke="#0284c7" stroke-width="0.5"/>
  <text x="54.5" y="17.5" font-size="6.5" font-weight="800" fill="#ffffff" font-family="system-ui,sans-serif">AI</text>
</svg>
